<svg width="276" height="60" viewBox="0 0 276 60" fill="none" xmlns="http://www.w3.org/2000/svg">
<g clip-path="url(#clip0_982_27568)">
<path d="M0 0L35.2878 35.2878L70.5757 0H50.719L35.2878 15.4311L19.8567 0H0Z" fill="#EAB633"/>
<path d="M70.5724 59.7124L56.5327 45.6711V26.4609L70.5757 12.418L70.5724 59.7124Z" fill="#EAB633"/>
<path d="M0.00164091 59.7009L13.956 45.7482V26.6562L0 12.7002L0.00164091 59.7009Z" fill="#EAB633"/>
<path d="M96.4269 10.1055L105.756 23.5002L115.22 10.1055H120.584V33.3408H115.357V17.0416L107.293 28.761H104.184L96.2218 17.0416V33.3408H91.0283V10.1055H96.4269Z" fill="#F6F5FA"/>
<path d="M130.799 23.602V29.104H144.432V33.3408H125.604V10.1055H143.713V14.3768H130.797V19.4685H141.629V23.6036H130.797L130.799 23.602Z" fill="#F6F5FA"/>
<path d="M166.266 10.1055H171.083V33.3408H166.162L153.212 16.9054V33.3408H148.395V10.1055H153.316L166.266 26.4375V10.1055Z" fill="#F6F5FA"/>
<path d="M175.207 14.4112V10.1055H197.929V14.4112H189.079V33.3408H183.886V14.4112H175.207Z" fill="#F6F5FA"/>
<path d="M223.384 18.0332V25.14C223.384 30.7782 218.737 33.6826 212.246 33.6826H211.734C205.104 33.6826 200.595 30.8471 200.595 25.14V18.0332C200.595 12.8397 205.277 9.76465 211.701 9.76465H212.247C218.466 9.76465 223.386 12.9086 223.386 18.0332H223.384ZM218.156 18.6486C218.156 15.6079 215.628 14.0359 212.246 14.0359H211.699C208.248 14.0359 205.822 15.7441 205.822 18.6141V24.5591C205.822 27.9082 208.111 29.4458 211.732 29.4458H212.244C215.866 29.4458 218.155 27.9082 218.155 24.5591V18.6486H218.156Z" fill="#F6F5FA"/>
<path d="M243.443 23.6364L249.353 33.3408H243.681L238.556 24.7637H232.646V33.3408H227.452V10.1055H239.752C245.082 10.1055 248.602 12.2928 248.602 16.8365V17.6225C248.602 20.8338 246.518 22.816 243.443 23.6364ZM232.646 20.8009H239.48C241.462 20.7665 243.376 19.9132 243.376 18.0327V17.1778C243.376 15.3662 241.769 14.3768 239.413 14.3768H232.647V20.8009H232.646Z" fill="#F6F5FA"/>
<path d="M266.604 9.93555L276 33.3415H270.226L268.244 28.2842H259.189L257.207 33.3415H251.433L260.828 9.93555H266.603H266.604ZM267.253 24.3198L263.733 15.0601L260.179 24.3198H267.251H267.253Z" fill="#F6F5FA"/>
<path d="M91.0283 44.403C91.0283 41.264 93.4799 38.8584 96.573 38.8584C99.1344 38.8584 101.243 40.5141 101.868 42.7474H99.9303C99.4003 41.4822 98.1499 40.56 96.573 40.56C94.402 40.56 92.8251 42.1845 92.8251 44.4014C92.8251 46.6183 94.3873 48.2444 96.5894 48.2444C98.3845 48.2444 99.6037 47.1975 99.9779 45.6354H96.5418V44.0273H102.07C102.07 47.6192 99.6333 49.9477 96.6353 49.9477C93.4815 49.9477 91.0283 47.5421 91.0283 44.403Z" fill="#F6F5FA"/>
<path d="M110.47 49.7922V39.0146H114.593C116.656 39.0146 118.123 40.4669 118.123 42.4819C118.123 43.9653 117.311 45.1369 116.062 45.6521L118.374 49.7905H116.359L114.219 45.9491H112.267V49.7905H110.47V49.7922ZM112.267 44.2475H114.39C115.545 44.2475 116.311 43.56 116.311 42.4819C116.311 41.4038 115.547 40.7163 114.39 40.7163H112.267V44.2459V44.2475Z" fill="#F6F5FA"/>
<path d="M126.164 44.403C126.164 41.264 128.569 38.8584 131.708 38.8584C134.847 38.8584 137.253 41.264 137.253 44.403C137.253 47.5421 134.831 49.9477 131.708 49.9477C128.586 49.9477 126.164 47.5421 126.164 44.403ZM135.456 44.403C135.456 42.2009 133.832 40.5764 131.708 40.5764C129.585 40.5764 127.96 42.2009 127.96 44.403C127.96 46.6052 129.568 48.2297 131.708 48.2297C133.848 48.2297 135.456 46.6052 135.456 44.403Z" fill="#F6F5FA"/>
<path d="M145.572 45.091V39.0146H147.369V45.0122C147.369 47.0272 148.462 48.23 150.196 48.23C151.931 48.23 153.007 47.0436 153.007 45.0122V39.0146H154.819V45.091C154.819 48.1053 152.976 49.9481 150.196 49.9481C147.417 49.9481 145.574 48.0889 145.574 45.091H145.572Z" fill="#F6F5FA"/>
<path d="M163.685 49.7922V39.0146H167.557C169.745 39.0146 171.18 40.5768 171.18 42.6378C171.18 44.6988 169.728 46.2609 167.557 46.2609H165.48V49.7905H163.683L163.685 49.7922ZM165.482 44.5445H167.449C168.635 44.5445 169.371 43.7946 169.371 42.6394C169.371 41.4842 168.635 40.7343 167.449 40.7343H165.482V44.5445Z" fill="#F6F5FA"/>
</g>
<defs>
<clipPath id="clip0_982_27568">
<rect width="276" height="59.7128" fill="white"/>
</clipPath>
</defs>
</svg>
